<?xml version="1.0" standalone="no"?>
<!DOCTYPE svg PUBLIC "-//W3C//DTD SVG 20010904//EN"
 "http://www.w3.org/TR/2001/REC-SVG-20010904/DTD/svg10.dtd">
<svg version="1.0" xmlns="http://www.w3.org/2000/svg"
 width="384.000000pt" height="384.000000pt" viewBox="0 0 384.000000 384.000000"
 preserveAspectRatio="xMidYMid meet">
<metadata>
Created by potrace 1.14, written by Peter Selinger 2001-2017
</metadata>
<g transform="translate(0.000000,384.000000) scale(0.100000,-0.100000)"
fill="#000000" stroke="none">
<path d="M1758 3835 c-1 -2 -30 -6 -63 -9 -312 -29 -681 -180 -960 -395 -80
-61 -248 -229 -317 -316 -86 -109 -163 -233 -228 -367 -53 -112 -120 -293
-134 -365 -3 -15 -10 -50 -16 -78 -17 -82 -20 -97 -27 -165 -10 -84 -10 -366
0 -450 15 -128 69 -349 106 -435 5 -11 15 -36 22 -55 22 -62 119 -248 171
-328 129 -199 267 -341 513 -530 28 -22 179 -110 245 -143 185 -93 430 -166
628 -187 85 -8 368 -8 447 1 291 33 587 143 840 312 134 90 173 122 295 245
189 188 329 402 428 650 35 89 85 264 98 340 2 14 6 35 9 46 13 60 20 166 20
319 -1 168 -3 196 -24 325 -14 83 -79 322 -91 334 -6 6 -10 17 -10 26 0 25
-122 266 -180 355 -132 203 -268 343 -515 533 -28 22 -179 110 -245 143 -172
87 -387 153 -600 185 -41 6 -406 14 -412 9z"/>
</g>
</svg>
